<?xml version="1.0" encoding="UTF-8"?>
<svg version="1.1" xmlns="http://www.w3.org/2000/svg" width="350" height="350">
<path d="M0 0 C115.5 0 231 0 350 0 C350 115.5 350 231 350 350 C234.5 350 119 350 0 350 C0 234.5 0 119 0 0 Z " fill="#FE4900" transform="translate(0,0)"/>
<path d="M0 0 C3.3 0 6.6 0 10 0 C10 3.3 10 6.6 10 10 C13.3 10 16.6 10 20 10 C20 6.7 20 3.4 20 0 C23.3 0 26.6 0 30 0 C30 3.3 30 6.6 30 10 C33.3 10 36.6 10 40 10 C40 6.7 40 3.4 40 0 C43.3 0 46.6 0 50 0 C50 6.6 50 13.2 50 20 C46.7 20 43.4 20 40 20 C40 26.6 40 33.2 40 40 C36.7 40 33.4 40 30 40 C30 33.4 30 26.8 30 20 C26.7 20 23.4 20 20 20 C20 23.3 20 26.6 20 30 C16.7 30 13.4 30 10 30 C10 26.7 10 23.4 10 20 C6.7 20 3.4 20 0 20 C0 23.3 0 26.6 0 30 C-3.3 30 -6.6 30 -10 30 C-10 33.3 -10 36.6 -10 40 C-6.7 40 -3.4 40 0 40 C0 46.6 0 53.2 0 60 C-3.3 60 -6.6 60 -10 60 C-10 63.3 -10 66.6 -10 70 C36.2 70 82.4 70 130 70 C130 56.8 130 43.6 130 30 C133.3 30 136.6 30 140 30 C140 56.4 140 82.8 140 110 C143.3 110 146.6 110 150 110 C150 116.6 150 123.2 150 130 C153.3 130 156.6 130 160 130 C160 133.3 160 136.6 160 140 C166.6 140 173.2 140 180 140 C180 143.3 180 146.6 180 150 C186.6 150 193.2 150 200 150 C200 153.3 200 156.6 200 160 C206.6 160 213.2 160 220 160 C220 163.3 220 166.6 220 170 C223.3 170 226.6 170 230 170 C230 173.3 230 176.6 230 180 C233.3 180 236.6 180 240 180 C240 203.1 240 226.2 240 250 C124.5 250 9 250 -110 250 C-110 197.2 -110 144.4 -110 90 C-106.7 90 -103.4 90 -100 90 C-100 93.3 -100 96.6 -100 100 C-96.7 100 -93.4 100 -90 100 C-90 103.3 -90 106.6 -90 110 C-83.4 110 -76.8 110 -70 110 C-70 106.7 -70 103.4 -70 100 C-66.7 100 -63.4 100 -60 100 C-60 73.6 -60 47.2 -60 20 C-56.7 20 -53.4 20 -50 20 C-50 16.7 -50 13.4 -50 10 C-46.7 10 -43.4 10 -40 10 C-40 13.3 -40 16.6 -40 20 C-36.7 20 -33.4 20 -30 20 C-30 26.6 -30 33.2 -30 40 C-26.7 40 -23.4 40 -20 40 C-20 33.4 -20 26.8 -20 20 C-16.7 20 -13.4 20 -10 20 C-10 16.7 -10 13.4 -10 10 C-6.7 10 -3.4 10 0 10 C0 6.7 0 3.4 0 0 Z " fill="#040202" transform="translate(110,100)"/>
<path d="M0 0 C3.3 0 6.6 0 10 0 C10 3.3 10 6.6 10 10 C13.3 10 16.6 10 20 10 C20 13.3 20 16.6 20 20 C26.6 20 33.2 20 40 20 C40 16.7 40 13.4 40 10 C46.6 10 53.2 10 60 10 C60 16.6 60 23.2 60 30 C63.3 30 66.6 30 70 30 C70 36.6 70 43.2 70 50 C66.7 50 63.4 50 60 50 C60 53.3 60 56.6 60 60 C53.4 60 46.8 60 40 60 C40 63.3 40 66.6 40 70 C33.4 70 26.8 70 20 70 C20 73.3 20 76.6 20 80 C16.7 80 13.4 80 10 80 C10 83.3 10 86.6 10 90 C16.6 90 23.2 90 30 90 C30 87.69 30 85.38 30 83 C31.5 81.0625 31.5 81.0625 33 80 C33.33 80.66 33.66 81.32 34 82 C35.32 82 36.64 82 38 82 C38 81.34 38 80.68 38 80 C39.64574566 79.97311849 41.29161413 79.95365877 42.9375 79.9375 C43.85402344 79.92589844 44.77054688 79.91429687 45.71484375 79.90234375 C48 80 48 80 49 81 C49.33 77.37 49.66 73.74 50 70 C55.53588533 69.97535225 61.071739 69.95716504 66.60766602 69.94506836 C68.4924373 69.94002756 70.37720465 69.93319502 72.26196289 69.92456055 C74.96501636 69.91248383 77.66801831 69.90676932 80.37109375 69.90234375 C81.21900986 69.89718246 82.06692596 69.89202118 82.9405365 69.88670349 C84.96071068 69.88650805 86.98077934 69.93793789 89 70 C90 71 90 71 90 80 C99.9 80 109.8 80 120 80 C120 83.3 120 86.6 120 90 C126.6 90 133.2 90 140 90 C140 93.3 140 96.6 140 100 C142.1965625 99.9690625 142.1965625 99.9690625 144.4375 99.9375 C145.95832518 99.91607993 147.48071962 99.92820036 149 100 C150 101 150 101 150.09765625 103.06640625 C150.08025391 104.30197266 150.08025391 104.30197266 150.0625 105.5625 C150.05347656 106.38878906 150.04445312 107.21507812 150.03515625 108.06640625 C150.02355469 108.70449219 150.01195312 109.34257812 150 110 C150.85549438 109.99214478 150.85549438 109.99214478 151.72827148 109.98413086 C154.29800323 109.96341779 156.86771747 109.9503581 159.4375 109.9375 C160.78424805 109.92493164 160.78424805 109.92493164 162.15820312 109.91210938 C163.01220703 109.90888672 163.86621094 109.90566406 164.74609375 109.90234375 C165.53685303 109.89710693 166.3276123 109.89187012 167.14233398 109.88647461 C169 110 169 110 170 111 C170.14193337 114.00331018 170.04236378 116.99217134 170 120 C173.3 120 176.6 120 180 120 C180 116.7 180 113.4 180 110 C176.7 110 173.4 110 170 110 C170 106.7 170 103.4 170 100 C163.4 100 156.8 100 150 100 C150 96.7 150 93.4 150 90 C166.5 90 183 90 200 90 C200 86.7 200 83.4 200 80 C186.8 80 173.6 80 160 80 C160 76.7 160 73.4 160 70 C153.4 70 146.8 70 140 70 C140 66.7 140 63.4 140 60 C136.7 60 133.4 60 130 60 C130 53.4 130 46.8 130 40 C133.3 40 136.6 40 140 40 C140 36.7 140 33.4 140 30 C143.3 30 146.6 30 150 30 C150 26.7 150 23.4 150 20 C153.3 20 156.6 20 160 20 C160 13.4 160 6.8 160 0 C163.3 0 166.6 0 170 0 C170 6.6 170 13.2 170 20 C173.3 20 176.6 20 180 20 C180 16.7 180 13.4 180 10 C189.9 10 199.8 10 210 10 C210 13.3 210 16.6 210 20 C213.3 20 216.6 20 220 20 C220 23.3 220 26.6 220 30 C223.3 30 226.6 30 230 30 C230 33.3 230 36.6 230 40 C206.9 40 183.8 40 160 40 C160 43.3 160 46.6 160 50 C163.3 50 166.6 50 170 50 C170 53.3 170 56.6 170 60 C183.2 60 196.4 60 210 60 C210 63.3 210 66.6 210 70 C216.6 70 223.2 70 230 70 C230 73.3 230 76.6 230 80 C223.4 80 216.8 80 210 80 C210 83.3 210 86.6 210 90 C219.9 90 229.8 90 240 90 C240 86.7 240 83.4 240 80 C243.3 80 246.6 80 250 80 C250 86.6 250 93.2 250 100 C243.4 100 236.8 100 230 100 C230 103.3 230 106.6 230 110 C226.7 110 223.4 110 220 110 C220 113.3 220 116.6 220 120 C213.4 120 206.8 120 200 120 C200 123.3 200 126.6 200 130 C196.7 130 193.4 130 190 130 C190 133.3 190 136.6 190 140 C193.3 140 196.6 140 200 140 C200 146.6 200 153.2 200 160 C134 160 68 160 0 160 C0 107.2 0 54.4 0 0 Z " fill="#242424" transform="translate(0,190)"/>
<path d="M0 0 C13.2 0 26.4 0 40 0 C40 3.3 40 6.6 40 10 C46.6 10 53.2 10 60 10 C60 13.3 60 16.6 60 20 C63.3 20 66.6 20 70 20 C70 23.3 70 26.6 70 30 C73.3 30 76.6 30 80 30 C80 53.1 80 76.2 80 100 C30.5 100 -19 100 -70 100 C-70 93.4 -70 86.8 -70 80 C-73.3 80 -76.6 80 -80 80 C-80 76.7 -80 73.4 -80 70 C-76.7 70 -73.4 70 -70 70 C-70 66.7 -70 63.4 -70 60 C-63.4 60 -56.8 60 -50 60 C-50 56.7 -50 53.4 -50 50 C-46.7 50 -43.4 50 -40 50 C-40 46.7 -40 43.4 -40 40 C-33.4 40 -26.8 40 -20 40 C-20 36.7 -20 33.4 -20 30 C-16.7 30 -13.4 30 -10 30 C-10 23.4 -10 16.8 -10 10 C-6.7 10 -3.4 10 0 10 C0 6.7 0 3.4 0 0 Z " fill="#1F1F1F" transform="translate(270,250)"/>
<path d="M0 0 C3.3 0 6.6 0 10 0 C10 6.6 10 13.2 10 20 C13.3 20 16.6 20 20 20 C20 16.7 20 13.4 20 10 C29.9 10 39.8 10 50 10 C50 13.3 50 16.6 50 20 C53.3 20 56.6 20 60 20 C60 23.3 60 26.6 60 30 C63.3 30 66.6 30 70 30 C70 33.3 70 36.6 70 40 C46.9 40 23.8 40 0 40 C0 43.3 0 46.6 0 50 C3.3 50 6.6 50 10 50 C10 53.3 10 56.6 10 60 C23.2 60 36.4 60 50 60 C50 63.3 50 66.6 50 70 C56.6 70 63.2 70 70 70 C70 73.3 70 76.6 70 80 C63.4 80 56.8 80 50 80 C50 83.3 50 86.6 50 90 C59.9 90 69.8 90 80 90 C80 86.7 80 83.4 80 80 C83.3 80 86.6 80 90 80 C90 86.6 90 93.2 90 100 C83.4 100 76.8 100 70 100 C70 103.3 70 106.6 70 110 C66.7 110 63.4 110 60 110 C60 113.3 60 116.6 60 120 C46.8 120 33.6 120 20 120 C20 116.7 20 113.4 20 110 C16.7 110 13.4 110 10 110 C10 106.7 10 103.4 10 100 C3.4 100 -3.2 100 -10 100 C-10 96.7 -10 93.4 -10 90 C6.5 90 23 90 40 90 C40 86.7 40 83.4 40 80 C26.8 80 13.6 80 0 80 C0 76.7 0 73.4 0 70 C-6.6 70 -13.2 70 -20 70 C-20 66.7 -20 63.4 -20 60 C-23.3 60 -26.6 60 -30 60 C-30 53.4 -30 46.8 -30 40 C-26.7 40 -23.4 40 -20 40 C-20 36.7 -20 33.4 -20 30 C-16.7 30 -13.4 30 -10 30 C-10 26.7 -10 23.4 -10 20 C-6.7 20 -3.4 20 0 20 C0 13.4 0 6.8 0 0 Z " fill="#506759" transform="translate(160,190)"/>
<path d="M0 0 C9.9 0 19.8 0 30 0 C30 3.3 30 6.6 30 10 C36.6 10 43.2 10 50 10 C50 13.3 50 16.6 50 20 C53.3 20 56.6 20 60 20 C60 23.3 60 26.6 60 30 C63.3 30 66.6 30 70 30 C70 53.1 70 76.2 70 100 C53.5 100 37 100 20 100 C20 86.8 20 73.6 20 60 C15.05 60.495 15.05 60.495 10 61 C8.28863515 61.01291432 6.57517397 60.98715891 4.8671875 60.87890625 C3.6296875 60.80639648 3.6296875 60.80639648 2.3671875 60.73242188 C1.54476563 60.67634766 0.72234375 60.62027344 -0.125 60.5625 C-0.98609375 60.51029297 -1.8471875 60.45808594 -2.734375 60.40429688 C-4.82336301 60.2766365 -6.9117598 60.13935895 -9 60 C-9.96723345 56.61468294 -9.92684799 54.42933756 -9 51 C-8.505 50.505 -8.505 50.505 -8 50 C-5.36 50 -2.72 50 0 50 C0 33.5 0 17 0 0 Z " fill="#242424" transform="translate(280,250)"/>
<path d="M0 0 C9.9 0 19.8 0 30 0 C30 6.6 30 13.2 30 20 C33.3 20 36.6 20 40 20 C40 33.2 40 46.4 40 60 C33.4 60 26.8 60 20 60 C20 63.3 20 66.6 20 70 C-6.4 70 -32.8 70 -60 70 C-60 66.7 -60 63.4 -60 60 C-56.7 60 -53.4 60 -50 60 C-50 53.4 -50 46.8 -50 40 C-53.3 40 -56.6 40 -60 40 C-60 36.7 -60 33.4 -60 30 C-56.7 30 -53.4 30 -50 30 C-50 26.7 -50 23.4 -50 20 C-46.7 20 -43.4 20 -40 20 C-40 23.3 -40 26.6 -40 30 C-36.7 30 -33.4 30 -30 30 C-30 26.7 -30 23.4 -30 20 C-26.7 20 -23.4 20 -20 20 C-20 26.6 -20 33.2 -20 40 C-16.7 40 -13.4 40 -10 40 C-10 33.4 -10 26.8 -10 20 C-6.7 20 -3.4 20 0 20 C0 13.4 0 6.8 0 0 Z " fill="#E7C80C" transform="translate(160,100)"/>
<path d="M0 0 C23.1 0 46.2 0 70 0 C70 9.9 70 19.8 70 30 C66.7 30 63.4 30 60 30 C60 33.3 60 36.6 60 40 C56.7 40 53.4 40 50 40 C50 43.3 50 46.6 50 50 C43.4 50 36.8 50 30 50 C30 59.9 30 69.8 30 80 C25.235625 80.020625 20.47125 80.04125 15.5625 80.0625 C14.0576001 80.071604 12.5527002 80.08070801 11.00219727 80.09008789 C9.82713623 80.09258545 8.6520752 80.09508301 7.44140625 80.09765625 C6.23170166 80.10289307 5.02199707 80.10812988 3.77563477 80.11352539 C1 80 1 80 0 79 C-0.23728814 72.47457627 -0.23728814 72.47457627 1 70 C-2.63 70 -6.26 70 -10 70 C-10 50.2 -10 30.4 -10 10 C-6.7 10 -3.4 10 0 10 C0 6.7 0 3.4 0 0 Z " fill="#1F1F1F" transform="translate(90,180)"/>
<path d="M0 0 C3.3 0 6.6 0 10 0 C10 6.6 10 13.2 10 20 C13.3 20 16.6 20 20 20 C20 23.3 20 26.6 20 30 C26.6 30 33.2 30 40 30 C40 33.3 40 36.6 40 40 C33.4 40 26.8 40 20 40 C20 43.3 20 46.6 20 50 C16.7 50 13.4 50 10 50 C10 56.6 10 63.2 10 70 C6.7 70 3.4 70 0 70 C0 66.7 0 63.4 0 60 C-3.3 60 -6.6 60 -10 60 C-10 63.3 -10 66.6 -10 70 C-19.9 70 -29.8 70 -40 70 C-40 66.7 -40 63.4 -40 60 C-33.4 60 -26.8 60 -20 60 C-20 56.7 -20 53.4 -20 50 C-26.6 50 -33.2 50 -40 50 C-40 46.7 -40 43.4 -40 40 C-53.2 40 -66.4 40 -80 40 C-80 36.7 -80 33.4 -80 30 C-83.3 30 -86.6 30 -90 30 C-90 26.7 -90 23.4 -90 20 C-60.3 20 -30.6 20 0 20 C0 13.4 0 6.8 0 0 Z " fill="#030202" transform="translate(250,210)"/>
<path d="M0 0 C3.3 0 6.6 0 10 0 C10 3.3 10 6.6 10 10 C13.3 10 16.6 10 20 10 C20 13.3 20 16.6 20 20 C26.6 20 33.2 20 40 20 C40 16.7 40 13.4 40 10 C46.6 10 53.2 10 60 10 C60 16.6 60 23.2 60 30 C63.3 30 66.6 30 70 30 C70 36.6 70 43.2 70 50 C66.7 50 63.4 50 60 50 C60 53.3 60 56.6 60 60 C53.4 60 46.8 60 40 60 C40 63.3 40 66.6 40 70 C33.4 70 26.8 70 20 70 C20 73.3 20 76.6 20 80 C16.7 80 13.4 80 10 80 C10 83.3 10 86.6 10 90 C6.7 90 3.4 90 0 90 C0 60.3 0 30.6 0 0 Z " fill="#1E1D1D" transform="translate(0,190)"/>
<path d="M0 0 C9.9 0 19.8 0 30 0 C30 3.3 30 6.6 30 10 C36.6 10 43.2 10 50 10 C50 13.3 50 16.6 50 20 C43.4 20 36.8 20 30 20 C30 23.3 30 26.6 30 30 C39.9 30 49.8 30 60 30 C60 26.7 60 23.4 60 20 C63.3 20 66.6 20 70 20 C70 26.6 70 33.2 70 40 C63.4 40 56.8 40 50 40 C50 43.3 50 46.6 50 50 C46.7 50 43.4 50 40 50 C40 53.3 40 56.6 40 60 C26.8 60 13.6 60 0 60 C0 56.7 0 53.4 0 50 C-3.3 50 -6.6 50 -10 50 C-10 46.7 -10 43.4 -10 40 C-16.6 40 -23.2 40 -30 40 C-30 36.7 -30 33.4 -30 30 C-13.5 30 3 30 20 30 C20 23.4 20 16.8 20 10 C13.4 10 6.8 10 0 10 C0 6.7 0 3.4 0 0 Z " fill="#480508" transform="translate(180,250)"/>
<path d="M0 0 C23.1 0 46.2 0 70 0 C70 9.9 70 19.8 70 30 C73.3 30 76.6 30 80 30 C80 36.6 80 43.2 80 50 C73.4 50 66.8 50 60 50 C60 46.7 60 43.4 60 40 C56.7 40 53.4 40 50 40 C50 36.7 50 33.4 50 30 C46.7 30 43.4 30 40 30 C40 26.7 40 23.4 40 20 C30.1 20 20.2 20 10 20 C10 23.3 10 26.6 10 30 C6.7 30 3.4 30 0 30 C0 20.1 0 10.2 0 0 Z " fill="#1C2720" transform="translate(170,180)"/>
<path d="M0 0 C9.9 0 19.8 0 30 0 C30 6.6 30 13.2 30 20 C33.3 20 36.6 20 40 20 C40 33.2 40 46.4 40 60 C33.4 60 26.8 60 20 60 C20 63.3 20 66.6 20 70 C16.7 70 13.4 70 10 70 C10 66.7 10 63.4 10 60 C6.7 60 3.4 60 0 60 C0 56.7 0 53.4 0 50 C3.3 50 6.6 50 10 50 C10 43.4 10 36.8 10 30 C3.73 30 -2.54 30 -9 30 C-9 33.3 -9 36.6 -9 40 C-9.33 40 -9.66 40 -10 40 C-10 33.4 -10 26.8 -10 20 C-6.7 20 -3.4 20 0 20 C0 13.4 0 6.8 0 0 Z " fill="#E8C90B" transform="translate(160,100)"/>
<path d="M0 0 C3.3 0 6.6 0 10 0 C10 19.8 10 39.6 10 60 C13.63 60 17.26 60 21 60 C20.67 63.3 20.34 66.6 20 70 C6.8 70 -6.4 70 -20 70 C-20 73.96 -20 77.92 -20 82 C-20.99 81.505 -20.99 81.505 -22 81 C-23.70363822 80.77377919 -25.41328701 80.59111527 -27.125 80.4375 C-28.49011719 80.31181641 -28.49011719 80.31181641 -29.8828125 80.18359375 C-30.58148438 80.12300781 -31.28015625 80.06242187 -32 80 C-32 80.66 -32 81.32 -32 82 C-35.465 81.505 -35.465 81.505 -39 81 C-39.33 83.97 -39.66 86.94 -40 90 C-46.6 90 -53.2 90 -60 90 C-60 86.7 -60 83.4 -60 80 C-56.7 80 -53.4 80 -50 80 C-50 76.7 -50 73.4 -50 70 C-43.4 70 -36.8 70 -30 70 C-30 66.7 -30 63.4 -30 60 C-23.4 60 -16.8 60 -10 60 C-10 56.7 -10 53.4 -10 50 C-6.7 50 -3.4 50 0 50 C0 43.4 0 36.8 0 30 C-3.3 30 -6.6 30 -10 30 C-10 23.4 -10 16.8 -10 10 C-6.7 10 -3.4 10 0 10 C0 6.7 0 3.4 0 0 Z " fill="#030202" transform="translate(70,190)"/>
<path d="M0 0 C3.3 0 6.6 0 10 0 C10 13.2 10 26.4 10 40 C-9.8 40 -29.6 40 -50 40 C-50 30.1 -50 20.2 -50 10 C-33.5 10 -17 10 0 10 C0 6.7 0 3.4 0 0 Z " fill="#272727" transform="translate(260,310)"/>
<path d="M0 0 C3.3 0 6.6 0 10 0 C10 6.6 10 13.2 10 20 C13.3 20 16.6 20 20 20 C20 16.7 20 13.4 20 10 C23.3 10 26.6 10 30 10 C30 23.2 30 36.4 30 50 C10.2 50 -9.6 50 -30 50 C-30 46.7 -30 43.4 -30 40 C-23.4 40 -16.8 40 -10 40 C-10 33.4 -10 26.8 -10 20 C-6.7 20 -3.4 20 0 20 C0 13.4 0 6.8 0 0 Z " fill="#E7C80A" transform="translate(210,120)"/>
<path d="M0 0 C16.5 0 33 0 50 0 C50 3.3 50 6.6 50 10 C66.5 10 83 10 100 10 C100 13.3 100 16.6 100 20 C70.3 20 40.6 20 10 20 C10 16.7 10 13.4 10 10 C6.7 10 3.4 10 0 10 C0 6.7 0 3.4 0 0 Z " fill="#48060A" transform="translate(160,230)"/>
<path d="M0 0 C3.3 0 6.6 0 10 0 C10.33 2.97 10.66 5.94 11 9 C20.57 9.33 30.14 9.66 40 10 C40 23.2 40 36.4 40 50 C30.1 50 20.2 50 10 50 C10 36.8 10 23.6 10 10 C6.7 10 3.4 10 0 10 C0 6.7 0 3.4 0 0 Z " fill="#1A1A1A" transform="translate(260,300)"/>
<path d="M0 0 C3.3 0 6.6 0 10 0 C10 3.63 10 7.26 10 11 C7.03 11 4.06 11 1 11 C1.33 13.64 1.66 16.28 2 19 C2.99 19.33 3.98 19.66 5 20 C5 20.66 5 21.32 5 22 C5.66 22 6.32 22 7 22 C7.33 21.34 7.66 20.68 8 20 C11.96 20 15.92 20 20 20 C20 23.3 20 26.6 20 30 C16.7 30 13.4 30 10 30 C10 39.9 10 49.8 10 60 C6.7 60 3.4 60 0 60 C0 56.7 0 53.4 0 50 C-6.6 50 -13.2 50 -20 50 C-20 43.4 -20 36.8 -20 30 C-16.7 30 -13.4 30 -10 30 C-10 23.4 -10 16.8 -10 10 C-6.7 10 -3.4 10 0 10 C0 6.7 0 3.4 0 0 Z " fill="#EE4D0E" transform="translate(290,190)"/>
<path d="M0 0 C3.3 0 6.6 0 10 0 C10 3.3 10 6.6 10 10 C13.3 10 16.6 10 20 10 C20 16.6 20 23.2 20 30 C16.7 30 13.4 30 10 30 C10 26.7 10 23.4 10 20 C6.7 20 3.4 20 0 20 C0 43.1 0 66.2 0 90 C-3.3 90 -6.6 90 -10 90 C-10 63.6 -10 37.2 -10 10 C-6.7 10 -3.4 10 0 10 C0 6.7 0 3.4 0 0 Z " fill="#050002" transform="translate(60,110)"/>
<path d="M0 0 C3.3 0 6.6 0 10 0 C10 3.3 10 6.6 10 10 C13.3 10 16.6 10 20 10 C20 6.7 20 3.4 20 0 C23.3 0 26.6 0 30 0 C30 3.3 30 6.6 30 10 C33.3 10 36.6 10 40 10 C40 13.3 40 16.6 40 20 C43.3 20 46.6 20 50 20 C50 23.3 50 26.6 50 30 C46.7 30 43.4 30 40 30 C40 33.3 40 36.6 40 40 C36.7 40 33.4 40 30 40 C30 33.4 30 26.8 30 20 C26.7 20 23.4 20 20 20 C20 26.6 20 33.2 20 40 C16.7 40 13.4 40 10 40 C10 33.4 10 26.8 10 20 C6.7 20 3.4 20 0 20 C0 13.4 0 6.8 0 0 Z " fill="#070101" transform="translate(190,100)"/>
<path d="M0 0 C19.8 0 39.6 0 60 0 C60 3.3 60 6.6 60 10 C56.7 10 53.4 10 50 10 C50 13.3 50 16.6 50 20 C36.8 20 23.6 20 10 20 C10 16.7 10 13.4 10 10 C6.7 10 3.4 10 0 10 C0 6.7 0 3.4 0 0 Z " fill="#3C4B39" transform="translate(170,290)"/>
<path d="M0 0 C3.3 0 6.6 0 10 0 C10 3.3 10 6.6 10 10 C13.3 10 16.6 10 20 10 C20 13.3 20 16.6 20 20 C26.6 20 33.2 20 40 20 C40 23.3 40 26.6 40 30 C33.4 30 26.8 30 20 30 C20 33.3 20 36.6 20 40 C16.7 40 13.4 40 10 40 C10 43.3 10 46.6 10 50 C6.7 50 3.4 50 0 50 C0 33.5 0 17 0 0 Z " fill="#F94A05" transform="translate(0,230)"/>
<path d="M0 0 C3.3 0 6.6 0 10 0 C10 3.3 10 6.6 10 10 C13.3 10 16.6 10 20 10 C20 13.3 20 16.6 20 20 C16.7 20 13.4 20 10 20 C10 26.6 10 33.2 10 40 C13.3 40 16.6 40 20 40 C20 46.6 20 53.2 20 60 C16.7 60 13.4 60 10 60 C10 63.3 10 66.6 10 70 C6.7 70 3.4 70 0 70 C0 46.9 0 23.8 0 0 Z " fill="#282727" transform="translate(60,130)"/>
<path d="M0 0 C3.3 0 6.6 0 10 0 C10 6.6 10 13.2 10 20 C13.3 20 16.6 20 20 20 C20 26.6 20 33.2 20 40 C16.7 40 13.4 40 10 40 C10 43.3 10 46.6 10 50 C3.4 50 -3.2 50 -10 50 C-10 43.4 -10 36.8 -10 30 C-6.7 30 -3.4 30 0 30 C0 20.1 0 10.2 0 0 Z " fill="#2A2826" transform="translate(50,200)"/>
<path d="M0 0 C6.27 0 12.54 0 19 0 C19 6.6 19 13.2 19 20 C15.7 20 12.4 20 9 20 C9 23.63 9 27.26 9 31 C11.97 31 14.94 31 18 31 C18 33.64 18 36.28 18 39 C11.73 39 5.46 39 -1 39 C-1 36.03 -1 33.06 -1 30 C-4.3 30 -7.6 30 -11 30 C-11 23.4 -11 16.8 -11 10 C-7.37 10 -3.74 10 0 10 C0 6.7 0 3.4 0 0 Z " fill="#F5DA06" transform="translate(151,130)"/>
<path d="M0 0 C3.3 0 6.6 0 10 0 C10 3.3 10 6.6 10 10 C13.3 10 16.6 10 20 10 C20 6.7 20 3.4 20 0 C23.3 0 26.6 0 30 0 C30 6.6 30 13.2 30 20 C23.4 20 16.8 20 10 20 C10 26.6 10 33.2 10 40 C9.67 40 9.34 40 9 40 C9 36.7 9 33.4 9 30 C6.36 30 3.72 30 1 30 C1 33.3 1 36.6 1 40 C0.67 40 0.34 40 0 40 C0 33.4 0 26.8 0 20 C-3.3 20 -6.6 20 -10 20 C-10 16.7 -10 13.4 -10 10 C-6.7 10 -3.4 10 0 10 C0 6.7 0 3.4 0 0 Z " fill="#EAC80E" transform="translate(110,120)"/>
<path d="M0 0 C3.3 0 6.6 0 10 0 C10 23.1 10 46.2 10 70 C6.7 70 3.4 70 0 70 C0 46.9 0 23.8 0 0 Z " fill="#171717" transform="translate(340,280)"/>
<path d="M0 0 C6.6 0 13.2 0 20 0 C20 3.3 20 6.6 20 10 C33.2 10 46.4 10 60 10 C60 13.3 60 16.6 60 20 C43.5 20 27 20 10 20 C10 16.7 10 13.4 10 10 C6.7 10 3.4 10 0 10 C0 6.7 0 3.4 0 0 Z " fill="#010101" transform="translate(140,260)"/>
<path d="M0 0 C3.3 0 6.6 0 10 0 C10 9.9 10 19.8 10 30 C13.3 30 16.6 30 20 30 C20 36.6 20 43.2 20 50 C13.4 50 6.8 50 0 50 C0 33.5 0 17 0 0 Z " fill="#151615" transform="translate(230,180)"/>
<path d="M0 0 C6.6 0 13.2 0 20 0 C20 3.3 20 6.6 20 10 C16.7 10 13.4 10 10 10 C10 19.9 10 29.8 10 40 C6.7 40 3.4 40 0 40 C0 33.4 0 26.8 0 20 C-3.3 20 -6.6 20 -10 20 C-10 16.7 -10 13.4 -10 10 C-6.7 10 -3.4 10 0 10 C0 6.7 0 3.4 0 0 Z " fill="#010000" transform="translate(200,310)"/>
<path d="M0 0 C3.3 0 6.6 0 10 0 C10 6.6 10 13.2 10 20 C13.3 20 16.6 20 20 20 C20 23.3 20 26.6 20 30 C16.7 30 13.4 30 10 30 C10 33.3 10 36.6 10 40 C6.7 40 3.4 40 0 40 C0 36.7 0 33.4 0 30 C-3.3 30 -6.6 30 -10 30 C-10 26.7 -10 23.4 -10 20 C-6.7 20 -3.4 20 0 20 C0 13.4 0 6.8 0 0 Z " fill="#7CDDD3" transform="translate(170,130)"/>
<path d="M0 0 C3.3 0 6.6 0 10 0 C10 13.2 10 26.4 10 40 C3.4 40 -3.2 40 -10 40 C-10 33.4 -10 26.8 -10 20 C-6.7 20 -3.4 20 0 20 C0 13.4 0 6.8 0 0 Z " fill="#215905" transform="translate(210,120)"/>
<path d="M0 0 C3.3 0 6.6 0 10 0 C10 11.88 10 23.76 10 36 C8.68 36.66 7.36 37.32 6 38 C4.68 36.68 3.36 35.36 2 34 C1.67 35.98 1.34 37.96 1 40 C0.67 40 0.34 40 0 40 C0 36.7 0 33.4 0 30 C-3.3 30 -6.6 30 -10 30 C-10 23.4 -10 16.8 -10 10 C-6.7 10 -3.4 10 0 10 C0 6.7 0 3.4 0 0 Z " fill="#060303" transform="translate(70,190)"/>
<path d="M0 0 C3.3 0 6.6 0 10 0 C10.33 2.97 10.66 5.94 11 9 C13.97 9.33 16.94 9.66 20 10 C20 23.2 20 36.4 20 50 C16.7 50 13.4 50 10 50 C10 36.8 10 23.6 10 10 C6.7 10 3.4 10 0 10 C0 6.7 0 3.4 0 0 Z " fill="#000000" transform="translate(260,300)"/>
<path d="M0 0 C16.5 0 33 0 50 0 C50 3.3 50 6.6 50 10 C33.5 10 17 10 0 10 C0 6.7 0 3.4 0 0 Z " fill="#202A1F" transform="translate(150,280)"/>
<path d="M0 0 C16.5 0 33 0 50 0 C50 3.3 50 6.6 50 10 C33.5 10 17 10 0 10 C0 6.7 0 3.4 0 0 Z " fill="#198A12" transform="translate(210,240)"/>
<path d="M0 0 C9.9 0 19.8 0 30 0 C30 6.6 30 13.2 30 20 C23.4 20 16.8 20 10 20 C10 16.7 10 13.4 10 10 C6.7 10 3.4 10 0 10 C0 6.7 0 3.4 0 0 Z " fill="#1D1D1D" transform="translate(10,230)"/>
<path d="M0 0 C3.3 0 6.6 0 10 0 C10 3.3 10 6.6 10 10 C13.3 10 16.6 10 20 10 C20 13.3 20 16.6 20 20 C23.3 20 26.6 20 30 20 C30 23.3 30 26.6 30 30 C23.4 30 16.8 30 10 30 C10 26.7 10 23.4 10 20 C6.7 20 3.4 20 0 20 C0 13.4 0 6.8 0 0 Z " fill="#36483C" transform="translate(200,200)"/>
<path d="M0 0 C3.3 0 6.6 0 10 0 C10 9.9 10 19.8 10 30 C6.7 30 3.4 30 0 30 C0 26.7 0 23.4 0 20 C-6.6 20 -13.2 20 -20 20 C-20 16.7 -20 13.4 -20 10 C-13.4 10 -6.8 10 0 10 C0 6.7 0 3.4 0 0 Z " fill="#060001" transform="translate(40,200)"/>
<path d="M0 0 C9.9 0 19.8 0 30 0 C30 6.6 30 13.2 30 20 C26.7 20 23.4 20 20 20 C20 16.7 20 13.4 20 10 C16.7 10 13.4 10 10 10 C10 13.3 10 16.6 10 20 C6.7 20 3.4 20 0 20 C0 13.4 0 6.8 0 0 Z " fill="#FDFBE5" transform="translate(160,100)"/>
<path d="M0 0 C3.3 0 6.6 0 10 0 C10 3.3 10 6.6 10 10 C13.3 10 16.6 10 20 10 C20 19.9 20 29.8 20 40 C16.7 40 13.4 40 10 40 C10 33.4 10 26.8 10 20 C6.7 20 3.4 20 0 20 C0 13.4 0 6.8 0 0 Z " fill="#050101" transform="translate(190,100)"/>
<path d="M0 0 C3.3 0 6.6 0 10 0 C10 6.6 10 13.2 10 20 C6.7 20 3.4 20 0 20 C0 26.6 0 33.2 0 40 C-3.3 40 -6.6 40 -10 40 C-10 30.1 -10 20.2 -10 10 C-6.7 10 -3.4 10 0 10 C0 6.7 0 3.4 0 0 Z " fill="#060102" transform="translate(150,100)"/>
<path d="M0 0 C6.27 0 12.54 0 19 0 C19 9.9 19 19.8 19 30 C16.03 30 13.06 30 10 30 C10 26.7 10 23.4 10 20 C6.7 20 3.4 20 0 20 C0 13.4 0 6.8 0 0 Z " fill="#F5DA06" transform="translate(180,130)"/>
<path d="M0 0 C3.96 0 7.92 0 12 0 C11.67 0.66 11.34 1.32 11 2 C10.91691362 3.37548156 10.89263984 4.75485796 10.90234375 6.1328125 C10.90717773 7.34130859 10.90717773 7.34130859 10.91210938 8.57421875 C10.92048828 9.41597656 10.92886719 10.25773437 10.9375 11.125 C10.94201172 11.97449219 10.94652344 12.82398438 10.95117188 13.69921875 C10.96297126 15.79950909 10.98090694 17.8997633 11 20 C10.36191406 20.06058594 9.72382812 20.12117188 9.06640625 20.18359375 C7.82697266 20.30927734 7.82697266 20.30927734 6.5625 20.4375 C5.32693359 20.55931641 5.32693359 20.55931641 4.06640625 20.68359375 C2.01337975 20.78930815 2.01337975 20.78930815 1 22 C0.84417697 23.34015221 0.74955858 24.68758903 0.68359375 26.03515625 C0.64169922 26.84404297 0.59980469 27.65292969 0.55664062 28.48632812 C0.51732422 29.33646484 0.47800781 30.18660156 0.4375 31.0625 C0.39431641 31.91650391 0.35113281 32.77050781 0.30664062 33.65039062 C0.20023298 35.76672037 0.09958269 37.88333813 0 40 C-3.3 40 -6.6 40 -10 40 C-10 33.4 -10 26.8 -10 20 C-6.7 20 -3.4 20 0 20 C0 13.4 0 6.8 0 0 Z " fill="#000000" transform="translate(100,310)"/>
<path d="M0 0 C3.3 0 6.6 0 10 0 C10 3.3 10 6.6 10 10 C16.6 10 23.2 10 30 10 C30 13.3 30 16.6 30 20 C33.3 20 36.6 20 40 20 C40 23.3 40 26.6 40 30 C36.7 30 33.4 30 30 30 C29.67 27.03 29.34 24.06 29 21 C22.73 20.67 16.46 20.34 10 20 C9.67 17.03 9.34 14.06 9 11 C6.03 10.67 3.06 10.34 0 10 C0 6.7 0 3.4 0 0 Z " fill="#050102" transform="translate(140,280)"/>
<path d="M0 0 C13.2 0 26.4 0 40 0 C40 3.3 40 6.6 40 10 C26.8 10 13.6 10 0 10 C0 6.7 0 3.4 0 0 Z " fill="#F3AF0D" transform="translate(180,300)"/>
<path d="M0 0 C13.2 0 26.4 0 40 0 C40 3.3 40 6.6 40 10 C26.8 10 13.6 10 0 10 C0 6.7 0 3.4 0 0 Z " fill="#030000" transform="translate(170,240)"/>
<path d="M0 0 C3.3 0 6.6 0 10 0 C10 6.6 10 13.2 10 20 C13.3 20 16.6 20 20 20 C20 23.3 20 26.6 20 30 C13.4 30 6.8 30 0 30 C0 20.1 0 10.2 0 0 Z " fill="#B4390C" transform="translate(50,200)"/>
<path d="M0 0 C3.3 0 6.6 0 10 0 C10 3.3 10 6.6 10 10 C16.6 10 23.2 10 30 10 C30 13.3 30 16.6 30 20 C20.1 20 10.2 20 0 20 C0 13.4 0 6.8 0 0 Z " fill="#3B3B3C" transform="translate(10,210)"/>
<path d="M0 0 C6.6 0 13.2 0 20 0 C20 6.6 20 13.2 20 20 C13.4 20 6.8 20 0 20 C0 13.4 0 6.8 0 0 Z " fill="#225905" transform="translate(120,140)"/>
<path d="M0 0 C3.3 0 6.6 0 10 0 C10 3.3 10 6.6 10 10 C13.3 10 16.6 10 20 10 C20 16.6 20 23.2 20 30 C16.7 30 13.4 30 10 30 C10 26.7 10 23.4 10 20 C6.7 20 3.4 20 0 20 C0 13.4 0 6.8 0 0 Z " fill="#393D3A" transform="translate(60,110)"/>
<path d="M0 0 C3.3 0 6.6 0 10 0 C10 3.3 10 6.6 10 10 C13.3 10 16.6 10 20 10 C20 13.3 20 16.6 20 20 C10.1 20 0.2 20 -10 20 C-10 16.7 -10 13.4 -10 10 C-6.7 10 -3.4 10 0 10 C0 6.7 0 3.4 0 0 Z " fill="#C0181B" transform="translate(170,80)"/>
<path d="M0 0 C6.6 0 13.2 0 20 0 C20 3.3 20 6.6 20 10 C23.3 10 26.6 10 30 10 C30 13.3 30 16.6 30 20 C26.7 20 23.4 20 20 20 C20 17.03 20 14.06 20 11 C13.4 10.67 6.8 10.34 0 10 C0 6.7 0 3.4 0 0 Z " fill="#070101" transform="translate(310,260)"/>
<path d="M0 0 C3.3 0 6.6 0 10 0 C10 6.6 10 13.2 10 20 C6.7 20 3.4 20 0 20 C0 23.3 0 26.6 0 30 C-3.3 30 -6.6 30 -10 30 C-10 26.7 -10 23.4 -10 20 C-7.03 19.67 -4.06 19.34 -1 19 C-0.67 12.73 -0.34 6.46 0 0 Z " fill="#030403" transform="translate(150,190)"/>
<path d="M0 0 C3.3 0 6.6 0 10 0 C10 6.6 10 13.2 10 20 C3.4 20 -3.2 20 -10 20 C-10 16.7 -10 13.4 -10 10 C-6.7 10 -3.4 10 0 10 C0 6.7 0 3.4 0 0 Z " fill="#040101" transform="translate(240,270)"/>
<path d="M0 0 C6.6 0 13.2 0 20 0 C20 6.6 20 13.2 20 20 C16.7 20 13.4 20 10 20 C10 16.7 10 13.4 10 10 C6.7 10 3.4 10 0 10 C0 6.7 0 3.4 0 0 Z " fill="#040203" transform="translate(140,260)"/>
<path d="M0 0 C3.3 0 6.6 0 10 0 C10 9.9 10 19.8 10 30 C6.7 30 3.4 30 0 30 C0 20.1 0 10.2 0 0 Z " fill="#CDC5C0" transform="translate(290,220)"/>
<path d="M0 0 C6.6 0 13.2 0 20 0 C20 3.3 20 6.6 20 10 C16.7 10 13.4 10 10 10 C10 13.3 10 16.6 10 20 C6.7 20 3.4 20 0 20 C0 13.4 0 6.8 0 0 Z " fill="#3A3C3C" transform="translate(60,180)"/>
<path d="M0 0 C3.3 0 6.6 0 10 0 C10 9.9 10 19.8 10 30 C6.7 30 3.4 30 0 30 C0 20.1 0 10.2 0 0 Z " fill="#C91610" transform="translate(230,130)"/>
<path d="M0 0 C2.97 0 5.94 0 9 0 C10.5220959 1.5220959 10.12959521 2.88210082 10.1328125 5 C10.13474609 6.2065625 10.13474609 6.2065625 10.13671875 7.4375 C10.13285156 8.283125 10.12898438 9.12875 10.125 10 C10.13080078 11.2684375 10.13080078 11.2684375 10.13671875 12.5625 C10.13542969 13.366875 10.13414062 14.17125 10.1328125 15 C10.13168457 15.7425 10.13055664 16.485 10.12939453 17.25 C10 19 10 19 9 20 C5.99668982 20.14193337 3.00782866 20.04236378 0 20 C0 23.3 0 26.6 0 30 C-3.3 30 -6.6 30 -10 30 C-10 26.7 -10 23.4 -10 20 C-7.03 19.67 -4.06 19.34 -1 19 C-0.67 12.73 -0.34 6.46 0 0 Z " fill="#2B2A2A" transform="translate(140,190)"/>
<path d="M0 0 C0.33 0.66 0.66 1.32 1 2 C1.99 2.33 2.98 2.66 4 3 C4 2.34 4 1.68 4 1 C5.32 1 6.64 1 8 1 C8 4.96 8 8.92 8 13 C1.4 13 -5.2 13 -12 13 C-12 9.7 -12 6.4 -12 3 C-8.7 3 -5.4 3 -2 3 C-2 2.34 -2 1.68 -2 1 C-1.34 0.67 -0.68 0.34 0 0 Z " fill="#161516" transform="translate(242,217)"/>
<path d="M0 0 C3.3 0 6.6 0 10 0 C10 3.3 10 6.6 10 10 C5.545 10.495 5.545 10.495 1 11 C0.67 13.97 0.34 16.94 0 20 C-3.3 20 -6.6 20 -10 20 C-10 16.7 -10 13.4 -10 10 C-6.7 10 -3.4 10 0 10 C0 6.7 0 3.4 0 0 Z " fill="#050102" transform="translate(230,290)"/>
<path d="M0 0 C6.6 0 13.2 0 20 0 C20 3.3 20 6.6 20 10 C13.4 10.33 6.8 10.66 0 11 C0 7.37 0 3.74 0 0 Z " fill="#020202" transform="translate(290,250)"/>
<path d="M0 0 C3.3 0 6.6 0 10 0 C10 6.6 10 13.2 10 20 C6.7 20 3.4 20 0 20 C0 13.4 0 6.8 0 0 Z " fill="#020001" transform="translate(340,280)"/>
<path d="M0 0 C6.6 0 13.2 0 20 0 C20 3.3 20 6.6 20 10 C13.4 10 6.8 10 0 10 C0 6.7 0 3.4 0 0 Z " fill="#F4AE0E" transform="translate(150,280)"/>
<path d="M0 0 C3.3 0 6.6 0 10 0 C10 6.6 10 13.2 10 20 C6.7 20 3.4 20 0 20 C0 13.4 0 6.8 0 0 Z " fill="#020000" transform="translate(0,280)"/>
<path d="M0 0 C6.6 0 13.2 0 20 0 C20 3.3 20 6.6 20 10 C13.4 10 6.8 10 0 10 C0 6.7 0 3.4 0 0 Z " fill="#202A1F" transform="translate(210,280)"/>
<path d="M0 0 C6.6 0 13.2 0 20 0 C20 3.3 20 6.6 20 10 C13.4 10 6.8 10 0 10 C0 6.7 0 3.4 0 0 Z " fill="#3B483F" transform="translate(210,260)"/>
<path d="M0 0 C6.6 0 13.2 0 20 0 C20 3.3 20 6.6 20 10 C13.4 10 6.8 10 0 10 C0 6.7 0 3.4 0 0 Z " fill="#3B4A3F" transform="translate(180,260)"/>
<path d="M0 0 C6.6 0 13.2 0 20 0 C20 3.3 20 6.6 20 10 C13.4 10 6.8 10 0 10 C0 6.7 0 3.4 0 0 Z " fill="#030000" transform="translate(270,240)"/>
<path d="M0 0 C6.6 0 13.2 0 20 0 C20 3.3 20 6.6 20 10 C13.4 10 6.8 10 0 10 C0 6.7 0 3.4 0 0 Z " fill="#060102" transform="translate(20,240)"/>
<path d="M0 0 C3.3 0 6.6 0 10 0 C10 6.6 10 13.2 10 20 C6.7 20 3.4 20 0 20 C0 13.4 0 6.8 0 0 Z " fill="#CBC5C4" transform="translate(270,220)"/>
<path d="M0 0 C3.3 0 6.6 0 10 0 C10 6.6 10 13.2 10 20 C6.7 20 3.4 20 0 20 C0 13.4 0 6.8 0 0 Z " fill="#F44B09" transform="translate(280,220)"/>
<path d="M0 0 C3.3 0 6.6 0 10 0 C10 6.6 10 13.2 10 20 C6.7 20 3.4 20 0 20 C0 13.4 0 6.8 0 0 Z " fill="#201D1E" transform="translate(10,210)"/>
<path d="M0 0 C3.3 0 6.6 0 10 0 C10 6.6 10 13.2 10 20 C6.7 20 3.4 20 0 20 C0 13.4 0 6.8 0 0 Z " fill="#F2E9E2" transform="translate(280,200)"/>
<path d="M0 0 C3.3 0 6.6 0 10 0 C10 6.6 10 13.2 10 20 C6.7 20 3.4 20 0 20 C0 13.4 0 6.8 0 0 Z " fill="#241C17" transform="translate(60,200)"/>
<path d="M0 0 C3.3 0 6.6 0 10 0 C10 6.6 10 13.2 10 20 C6.7 20 3.4 20 0 20 C0 13.4 0 6.8 0 0 Z " fill="#32070A" transform="translate(170,190)"/>
<path d="M0 0 C3.3 0 6.6 0 10 0 C10 6.6 10 13.2 10 20 C6.7 20 3.4 20 0 20 C0 13.4 0 6.8 0 0 Z " fill="#95F6E9" transform="translate(170,130)"/>
<path d="M0 0 C3.3 0 6.6 0 10 0 C10 6.6 10 13.2 10 20 C6.7 20 3.4 20 0 20 C0 13.4 0 6.8 0 0 Z " fill="#C9160F" transform="translate(100,140)"/>
<path d="M0 0 C3.3 0 6.6 0 10 0 C10 6.6 10 13.2 10 20 C6.7 20 3.4 20 0 20 C0 13.4 0 6.8 0 0 Z " fill="#F5D80B" transform="translate(220,140)"/>
<path d="M0 0 C3.3 0 6.6 0 10 0 C10 6.6 10 13.2 10 20 C6.7 20 3.4 20 0 20 C0 13.4 0 6.8 0 0 Z " fill="#F5D810" transform="translate(210,120)"/>
<path d="M0 0 C3.3 0 6.6 0 10 0 C10 6.6 10 13.2 10 20 C6.7 20 3.4 20 0 20 C0 13.4 0 6.8 0 0 Z " fill="#050000" transform="translate(70,120)"/>
<path d="M0 0 C3.3 0 6.6 0 10 0 C10 6.6 10 13.2 10 20 C6.7 20 3.4 20 0 20 C0 13.4 0 6.8 0 0 Z " fill="#C51714" transform="translate(210,100)"/>
<path d="M0 0 C3.3 0 6.6 0 10 0 C10 6.6 10 13.2 10 20 C6.7 20 3.4 20 0 20 C0 13.4 0 6.8 0 0 Z " fill="#C51714" transform="translate(130,100)"/>
<path d="M0 0 C3.3 0 6.6 0 10 0 C10 6.6 10 13.2 10 20 C6.7 20 3.4 20 0 20 C0 13.4 0 6.8 0 0 Z " fill="#C71614" transform="translate(110,100)"/>
<path d="M0 0 C3.14588944 -0.02683697 6.29155271 -0.04675902 9.4375 -0.0625 C10.33533203 -0.07087891 11.23316406 -0.07925781 12.15820312 -0.08789062 C13.01220703 -0.09111328 13.86621094 -0.09433594 14.74609375 -0.09765625 C15.93223267 -0.10551147 15.93223267 -0.10551147 17.14233398 -0.11352539 C19 0 19 0 20 1 C20 3.97 20 6.94 20 10 C13.4 10 6.8 10 0 10 C0 6.7 0 3.4 0 0 Z " fill="#161615" transform="translate(150,300)"/>
<path d="M0 0 C3.3 0 6.6 0 10 0 C10 6.6 10 13.2 10 20 C6.7 20 3.4 20 0 20 C0 13.4 0 6.8 0 0 Z " fill="#1E1E1E" transform="translate(190,330)"/>
<path d="M0 0 C2.64 0 5.28 0 8 0 C8 6.6 8 13.2 8 20 C4.7 20 1.4 20 -2 20 C-2.05379226 17.04142591 -2.09357093 14.08382279 -2.125 11.125 C-2.14175781 10.28324219 -2.15851563 9.44148437 -2.17578125 8.57421875 C-2.18222656 7.76855469 -2.18867188 6.96289062 -2.1953125 6.1328125 C-2.21102295 5.01737061 -2.21102295 5.01737061 -2.22705078 3.87939453 C-2 2 -2 2 0 0 Z " fill="#370507" transform="translate(212,190)"/>
<path d="M0 0 C2.64 0 5.28 0 8 0 C8.76704207 12.59653534 8.76704207 12.59653534 6.921875 15.97265625 C5.5625 17.25 5.5625 17.25 3 19 C1.46554906 22.06890187 2.45015711 24.70094266 3 28 C2.01 28 1.02 28 0 28 C0 18.76 0 9.52 0 0 Z " fill="#BE3601" transform="translate(51,201)"/>
<path d="M0 0 C2.64 0 5.28 0 8 0 C8 5.94 8 11.88 8 18 C5.03 18 2.06 18 -1 18 C-1.66 15.36 -2.32 12.72 -3 10 C-2.34 9.67 -1.68 9.34 -1 9 C-0.53348793 6.87423218 -0.53348793 6.87423218 -0.375 4.4375 C-0.30023438 3.61121094 -0.22546875 2.78492187 -0.1484375 1.93359375 C-0.09945312 1.29550781 -0.05046875 0.65742187 0 0 Z " fill="#F7DA03" transform="translate(131,121)"/>
<path d="M0 0 C0.33 0 0.66 0 1 0 C1 2.97 1 5.94 1 9 C1.99 8.67 2.98 8.34 4 8 C4.33 9.65 4.66 11.3 5 13 C5.99 12.67 6.98 12.34 8 12 C8 11.34 8 10.68 8 10 C8.66 10 9.32 10 10 10 C10 13.3 10 16.6 10 20 C6.7 20 3.4 20 0 20 C0 13.4 0 6.8 0 0 Z " fill="#EE4D0E" transform="translate(260,210)"/>
<path d="M0 0 C3.63 0 7.26 0 11 0 C11 3.3 11 6.6 11 10 C7.37 10 3.74 10 0 10 C0 6.7 0 3.4 0 0 Z " fill="#3B3B3B" transform="translate(69,140)"/>
<path d="M0 0 C3.3 0 6.6 0 10 0 C10.87890625 6.93359375 10.87890625 6.93359375 11 9 C10 10 10 10 7.71484375 10.09765625 C5.14322917 10.06510417 2.57161458 10.03255208 0 10 C0 6.7 0 3.4 0 0 Z " fill="#1D1E1D" transform="translate(40,240)"/>
<path d="M0 0 C3.3 0 6.6 0 10 0 C10 3.3 10 6.6 10 10 C6.7 10 3.4 10 0 10 C0 6.7 0 3.4 0 0 Z " fill="#3C4A3D" transform="translate(190,310)"/>
<path d="M0 0 C3.3 0 6.6 0 10 0 C10 3.3 10 6.6 10 10 C6.7 10 3.4 10 0 10 C0 6.7 0 3.4 0 0 Z " fill="#030103" transform="translate(180,310)"/>
<path d="M0 0 C3.3 0 6.6 0 10 0 C10 3.3 10 6.6 10 10 C6.7 10 3.4 10 0 10 C0 6.7 0 3.4 0 0 Z " fill="#F1AE14" transform="translate(220,290)"/>
<path d="M0 0 C3.3 0 6.6 0 10 0 C10 3.3 10 6.6 10 10 C6.7 10 3.4 10 0 10 C0 6.7 0 3.4 0 0 Z " fill="#F2AD13" transform="translate(170,290)"/>
<path d="M0 0 C3.3 0 6.6 0 10 0 C10 3.3 10 6.6 10 10 C6.7 10 3.4 10 0 10 C0 6.7 0 3.4 0 0 Z " fill="#F2AE11" transform="translate(230,280)"/>
<path d="M0 0 C3.3 0 6.6 0 10 0 C10 3.3 10 6.6 10 10 C6.7 10 3.4 10 0 10 C0 6.7 0 3.4 0 0 Z " fill="#F2AE12" transform="translate(240,270)"/>
<path d="M0 0 C3.3 0 6.6 0 10 0 C10 3.3 10 6.6 10 10 C6.7 10 3.4 10 0 10 C0 6.7 0 3.4 0 0 Z " fill="#F1AE14" transform="translate(140,270)"/>
<path d="M0 0 C3.3 0 6.6 0 10 0 C10 3.3 10 6.6 10 10 C6.7 10 3.4 10 0 10 C0 6.7 0 3.4 0 0 Z " fill="#23291B" transform="translate(150,270)"/>
<path d="M0 0 C3.3 0 6.6 0 10 0 C10 3.3 10 6.6 10 10 C6.7 10 3.4 10 0 10 C0 6.7 0 3.4 0 0 Z " fill="#F0AE15" transform="translate(130,260)"/>
<path d="M0 0 C3.3 0 6.6 0 10 0 C10 3.3 10 6.6 10 10 C6.7 10 3.4 10 0 10 C0 6.7 0 3.4 0 0 Z " fill="#1D2923" transform="translate(220,260)"/>
<path d="M0 0 C3.3 0 6.6 0 10 0 C10 3.3 10 6.6 10 10 C6.7 10 3.4 10 0 10 C0 6.7 0 3.4 0 0 Z " fill="#C6C7C7" transform="translate(280,250)"/>
<path d="M0 0 C3.3 0 6.6 0 10 0 C10 3.3 10 6.6 10 10 C6.7 10 3.4 10 0 10 C0 6.7 0 3.4 0 0 Z " fill="#6B5809" transform="translate(210,240)"/>
<path d="M0 0 C3.3 0 6.6 0 10 0 C10 3.3 10 6.6 10 10 C6.7 10 3.4 10 0 10 C0 6.7 0 3.4 0 0 Z " fill="#6D0910" transform="translate(260,240)"/>
<path d="M0 0 C3.3 0 6.6 0 10 0 C10 3.3 10 6.6 10 10 C6.7 10 3.4 10 0 10 C0 6.7 0 3.4 0 0 Z " fill="#37463D" transform="translate(130,240)"/>
<path d="M0 0 C3.3 0 6.6 0 10 0 C10 3.3 10 6.6 10 10 C6.7 10 3.4 10 0 10 C0 6.7 0 3.4 0 0 Z " fill="#030100" transform="translate(160,230)"/>
<path d="M0 0 C3.3 0 6.6 0 10 0 C10 3.3 10 6.6 10 10 C6.7 10 3.4 10 0 10 C0 6.7 0 3.4 0 0 Z " fill="#080002" transform="translate(10,230)"/>
<path d="M0 0 C3.3 0 6.6 0 10 0 C10 3.3 10 6.6 10 10 C6.7 10 3.4 10 0 10 C0 6.7 0 3.4 0 0 Z " fill="#F2E8DE" transform="translate(290,220)"/>
<path d="M0 0 C3.3 0 6.6 0 10 0 C10 3.3 10 6.6 10 10 C6.7 10 3.4 10 0 10 C0 6.7 0 3.4 0 0 Z " fill="#F2E9E4" transform="translate(270,220)"/>
<path d="M0 0 C3.3 0 6.6 0 10 0 C10 3.3 10 6.6 10 10 C6.7 10 3.4 10 0 10 C0 6.7 0 3.4 0 0 Z " fill="#1F2A22" transform="translate(230,220)"/>
<path d="M0 0 C3.3 0 6.6 0 10 0 C10 3.3 10 6.6 10 10 C6.7 10 3.4 10 0 10 C0 6.7 0 3.4 0 0 Z " fill="#050002" transform="translate(0,220)"/>
<path d="M0 0 C3.3 0 6.6 0 10 0 C10 3.3 10 6.6 10 10 C6.7 10 3.4 10 0 10 C0 6.7 0 3.4 0 0 Z " fill="#F3E8DD" transform="translate(300,210)"/>
<path d="M0 0 C3.3 0 6.6 0 10 0 C10 3.3 10 6.6 10 10 C6.7 10 3.4 10 0 10 C0 6.7 0 3.4 0 0 Z " fill="#3C3B3B" transform="translate(10,210)"/>
<path d="M0 0 C3.3 0 6.6 0 10 0 C10 3.3 10 6.6 10 10 C6.7 10 3.4 10 0 10 C0 6.7 0 3.4 0 0 Z " fill="#D1C3BD" transform="translate(280,200)"/>
<path d="M0 0 C3.3 0 6.6 0 10 0 C10 3.3 10 6.6 10 10 C6.7 10 3.4 10 0 10 C0 6.7 0 3.4 0 0 Z " fill="#090102" transform="translate(10,200)"/>
<path d="M0 0 C3.3 0 6.6 0 10 0 C10 3.3 10 6.6 10 10 C6.7 10 3.4 10 0 10 C0 6.7 0 3.4 0 0 Z " fill="#F3E8E1" transform="translate(290,190)"/>
<path d="M0 0 C3.3 0 6.6 0 10 0 C10 3.3 10 6.6 10 10 C6.7 10 3.4 10 0 10 C0 6.7 0 3.4 0 0 Z " fill="#F04B0E" transform="translate(60,190)"/>
<path d="M0 0 C3.3 0 6.6 0 10 0 C10 3.3 10 6.6 10 10 C6.7 10 3.4 10 0 10 C0 6.7 0 3.4 0 0 Z " fill="#080001" transform="translate(0,190)"/>
<path d="M0 0 C3.3 0 6.6 0 10 0 C10 3.3 10 6.6 10 10 C6.7 10 3.4 10 0 10 C0 6.7 0 3.4 0 0 Z " fill="#36473B" transform="translate(160,190)"/>
<path d="M0 0 C3.3 0 6.6 0 10 0 C10 3.3 10 6.6 10 10 C6.7 10 3.4 10 0 10 C0 6.7 0 3.4 0 0 Z " fill="#A0F3D8" transform="translate(170,160)"/>
<path d="M0 0 C3.3 0 6.6 0 10 0 C10 3.3 10 6.6 10 10 C6.7 10 3.4 10 0 10 C0 6.7 0 3.4 0 0 Z " fill="#9CF5DA" transform="translate(160,150)"/>
<path d="M0 0 C3.3 0 6.6 0 10 0 C10 3.3 10 6.6 10 10 C6.7 10 3.4 10 0 10 C0 6.7 0 3.4 0 0 Z " fill="#A0F4D5" transform="translate(180,150)"/>
<path d="M0 0 C3.3 0 6.6 0 10 0 C10 3.3 10 6.6 10 10 C6.7 10 3.4 10 0 10 C0 6.7 0 3.4 0 0 Z " fill="#F04D0D" transform="translate(80,150)"/>
<path d="M0 0 C3.3 0 6.6 0 10 0 C10 3.3 10 6.6 10 10 C6.7 10 3.4 10 0 10 C0 6.7 0 3.4 0 0 Z " fill="#E8C612" transform="translate(230,130)"/>
<path d="M0 0 C3.3 0 6.6 0 10 0 C10 3.3 10 6.6 10 10 C6.7 10 3.4 10 0 10 C0 6.7 0 3.4 0 0 Z " fill="#FBFDEC" transform="translate(170,130)"/>
<path d="M0 0 C3.3 0 6.6 0 10 0 C10 3.3 10 6.6 10 10 C6.7 10 3.4 10 0 10 C0 6.7 0 3.4 0 0 Z " fill="#0C0002" transform="translate(60,110)"/>
<path d="M0 0 C3.3 0 6.6 0 10 0 C10 3.3 10 6.6 10 10 C6.7 10 3.4 10 0 10 C0 6.7 0 3.4 0 0 Z " fill="#FEFDEE" transform="translate(180,110)"/>
<path d="M0 0 C3.3 0 6.6 0 10 0 C10 3.3 10 6.6 10 10 C6.7 10 3.4 10 0 10 C0 6.7 0 3.4 0 0 Z " fill="#FDFDEF" transform="translate(160,110)"/>
<path d="M0 0 C3.3 0 6.6 0 10 0 C10 3.3 10 6.6 10 10 C6.7 10 3.4 10 0 10 C0 6.7 0 3.4 0 0 Z " fill="#F3D816" transform="translate(160,100)"/>
<path d="M0 0 C3.3 0 6.6 0 10 0 C10 3.3 10 6.6 10 10 C6.7 10 3.4 10 0 10 C0 6.7 0 3.4 0 0 Z " fill="#0F0102" transform="translate(210,100)"/>
<path d="M0 0 C3.3 0 6.6 0 10 0 C10 3.3 10 6.6 10 10 C6.7 10 3.4 10 0 10 C0 6.7 0 3.4 0 0 Z " fill="#F2D717" transform="translate(180,100)"/>
<path d="M0 0 C3.3 0 6.6 0 10 0 C10 3.3 10 6.6 10 10 C6.7 10 3.4 10 0 10 C0 6.7 0 3.4 0 0 Z " fill="#0F0102" transform="translate(130,100)"/>
<path d="M0 0 C3.3 0 6.6 0 10 0 C10 3.3 10 6.6 10 10 C6.7 10 3.4 10 0 10 C0 6.7 0 3.4 0 0 Z " fill="#0E0101" transform="translate(110,100)"/>
<path d="M0 0 C3.3 0 6.6 0 10 0 C10 3.3 10 6.6 10 10 C6.7 10 3.4 10 0 10 C0 6.7 0 3.4 0 0 Z " fill="#0E0202" transform="translate(180,90)"/>
<path d="M0 0 C3.3 0 6.6 0 10 0 C10 3.3 10 6.6 10 10 C6.7 10 3.4 10 0 10 C0 6.7 0 3.4 0 0 Z " fill="#0C0101" transform="translate(160,90)"/>
<path d="M0 0 C3.3 0 6.6 0 10 0 C10 3.3 10 6.6 10 10 C6.7 10 3.4 10 0 10 C0 6.7 0 3.4 0 0 Z " fill="#0E0101" transform="translate(170,80)"/>
<path d="M0 0 C6.93359375 -0.09765625 6.93359375 -0.09765625 9 0 C10 1 10 1 10.09765625 3.06640625 C10.06510417 5.37760417 10.03255208 7.68880208 10 10 C6.7 10 3.4 10 0 10 C0 6.7 0 3.4 0 0 Z " fill="#161415" transform="translate(140,290)"/>
<path d="M0 0 C3.3 0 6.6 0 10 0 C10 3.3 10 6.6 10 10 C3.06640625 10.09765625 3.06640625 10.09765625 1 10 C0 9 0 9 -0.09765625 6.93359375 C-0.06510417 4.62239583 -0.03255208 2.31119792 0 0 Z " fill="#030403" transform="translate(130,220)"/>
<path d="M0 0 C3.3 0 6.6 0 10 0 C10 3.3 10 6.6 10 10 C7.03 10 4.06 10 1 10 C-0.1577506 6.52674819 -0.06866652 3.63932552 0 0 Z " fill="#2A2A2A" transform="translate(150,180)"/>
<path d="M0 0 C3.3 0 6.6 0 10 0 C10 2.97 10 5.94 10 9 C6.7 9 3.4 9 0 9 C0 6.03 0 3.06 0 0 Z " fill="#3B3C3D" transform="translate(60,231)"/>
<path d="M0 0 C1.98 0.495 1.98 0.495 4 1 C4 6.28 4 11.56 4 17 C2.35 17 0.7 17 -1 17 C-1.02684679 14.35409986 -1.04676357 11.70846904 -1.0625 9.0625 C-1.07087891 8.30775391 -1.07925781 7.55300781 -1.08789062 6.77539062 C-1.09652441 4.85005687 -1.05224333 2.92464419 -1 1 C-0.67 0.67 -0.34 0.34 0 0 Z " fill="#3C0307" transform="translate(175,191)"/>
<path d="M0 0 C2.64 0 5.28 0 8 0 C8 3.3 8 6.6 8 10 C5.36 10 2.72 10 0 10 C0 6.7 0 3.4 0 0 Z " fill="#F7D902" transform="translate(111,150)"/>
<path d="M0 0 C0.33 0 0.66 0 1 0 C1 3.3 1 6.6 1 10 C-2.3 10 -5.6 10 -9 10 C-9 13.3 -9 16.6 -9 20 C-12.3 20 -15.6 20 -19 20 C-19 17.03 -19 14.06 -19 11 C-18.67 11 -18.34 11 -18 11 C-18 13.64 -18 16.28 -18 19 C-16.02 19 -14.04 19 -12 19 C-12.33 18.01 -12.66 17.02 -13 16 C-12.34 16 -11.68 16 -11 16 C-11 15.34 -11 14.68 -11 14 C-11.99 13.67 -12.98 13.34 -14 13 C-13.75 11.125 -13.75 11.125 -13 9 C-10.9375 7.75 -10.9375 7.75 -9 7 C-8.67 7.33 -8.34 7.66 -8 8 C-6.65252916 8.23075082 -5.29622435 8.41153063 -3.9375 8.5625 C-2.638125 8.706875 -1.33875 8.85125 0 9 C0 6.03 0 3.06 0 0 Z " fill="#E65115" transform="translate(159,90)"/>
<path d="M0 0 C2.97 0 5.94 0 9 0 C9 2.64 9 5.28 9 8 C6.03 8 3.06 8 0 8 C0 5.36 0 2.72 0 0 Z " fill="#0C6E07" transform="translate(250,241)"/>
<path d="M0 0 C2.97 0 5.94 0 9 0 C9 2.64 9 5.28 9 8 C6.03 8 3.06 8 0 8 C0 5.36 0 2.72 0 0 Z " fill="#EAC803" transform="translate(160,161)"/>
<path d="M0 0 C1.32 0.33 2.64 0.66 4 1 C4 1.66 4 2.32 4 3 C3.34 3.66 2.68 4.32 2 5 C4.97 5.495 4.97 5.495 8 6 C8 6.33 8 6.66 8 7 C5.03 7 2.06 7 -1 7 C-1 10.3 -1 13.6 -1 17 C-4.3 17 -7.6 17 -11 17 C-11 16.67 -11 16.34 -11 16 C-8.03 16 -5.06 16 -2 16 C-2.99 12.04 -3.98 8.08 -5 4 C-3.35 3.34 -1.7 2.68 0 2 C0 1.34 0 0.68 0 0 Z " fill="#EC4E10" transform="translate(61,103)"/>
<path d="M0 0 C0.99 0 1.98 0 3 0 C3.66 0.99 4.32 1.98 5 3 C7.05925139 3.72382467 7.05925139 3.72382467 9 4 C9 4.66 9 5.32 9 6 C8.01 6 7.02 6 6 6 C6 6.66 6 7.32 6 8 C6.99 8.66 7.98 9.32 9 10 C6.03 10 3.06 10 0 10 C0 6.7 0 3.4 0 0 Z " fill="#EF4D0F" transform="translate(330,260)"/>
<path d="M0 0 C1.98 0 3.96 0 6 0 C6 3.3 6 6.6 6 10 C4.68 10 3.36 10 2 10 C2 9.34 2 8.68 2 8 C1.34 8 0.68 8 0 8 C0 6.68 0 5.36 0 4 C0.66 4 1.32 4 2 4 C1.34 2.68 0.68 1.36 0 0 Z " fill="#141516" transform="translate(304,260)"/>
<path d="M0 0 C3.3 0 6.6 0 10 0 C10 0.33 10 0.66 10 1 C7.03 1 4.06 1 1 1 C1 1.99 1 2.98 1 4 C1.66 4.33 2.32 4.66 3 5 C2.67 6.32 2.34 7.64 2 9 C7.28 9 12.56 9 18 9 C18 8.01 18 7.02 18 6 C18.66 6 19.32 6 20 6 C20 7.32 20 8.64 20 10 C13.4 10 6.8 10 0 10 C0 6.7 0 3.4 0 0 Z " fill="#380708" transform="translate(180,250)"/>
<path d="M0 0 C3.3 0 6.6 0 10 0 C10 3.3 10 6.6 10 10 C8.68 10 7.36 10 6 10 C5.67 7.36 5.34 4.72 5 2 C3.35 1.67 1.7 1.34 0 1 C0 0.67 0 0.34 0 0 Z " fill="#130102" transform="translate(300,250)"/>
<path d="M0 0 C0.33 0 0.66 0 1 0 C1 3.3 1 6.6 1 10 C-2.3 10 -5.6 10 -9 10 C-7.68 9.67 -6.36 9.34 -5 9 C-5 7.35 -5 5.7 -5 4 C-4.34 4 -3.68 4 -3 4 C-3 3.34 -3 2.68 -3 2 C-2.01 2 -1.02 2 0 2 C0 1.34 0 0.68 0 0 Z " fill="#F14B0E" transform="translate(169,80)"/>
<path d="M0 0 C0.66 0.33 1.32 0.66 2 1 C1.67 2.32 1.34 3.64 1 5 C2.32 5 3.64 5 5 5 C4.67 6.32 4.34 7.64 4 9 C2.02 9 0.04 9 -2 9 C-2 6.36 -2 3.72 -2 1 C-1.34 0.67 -0.68 0.34 0 0 Z " fill="#C4C8C9" transform="translate(292,241)"/>
<path d="M0 0 C0.99 0 1.98 0 3 0 C3 2.97 3 5.94 3 9 C0.69 9 -1.62 9 -4 9 C-4 8.34 -4 7.68 -4 7 C-3.34 6.67 -2.68 6.34 -2 6 C-1.27306096 4.02111039 -0.60183749 2.02045442 0 0 Z " fill="#93F7E9" transform="translate(176,160)"/>
<path d="M0 0 C1.98 0 3.96 0 6 0 C5.67 2.31 5.34 4.62 5 7 C3.35 7.33 1.7 7.66 0 8 C0 5.36 0 2.72 0 0 Z " fill="#131814" transform="translate(10,280)"/>
<path d="M0 0 C3.3 0 6.6 0 10 0 C10 3.3 10 6.6 10 10 C9.67 10 9.34 10 9 10 C9 7.36 9 4.72 9 2 C6.36 2.33 3.72 2.66 1 3 C1 5.31 1 7.62 1 10 C0.67 10 0.34 10 0 10 C0 6.7 0 3.4 0 0 Z " fill="#A8F0CE" transform="translate(170,140)"/>
<path d="M0 0 C2.475 0.495 2.475 0.495 5 1 C5 3.31 5 5.62 5 8 C3.35 8 1.7 8 0 8 C0 5.36 0 2.72 0 0 Z " fill="#90F9E6" transform="translate(180,151)"/>
<path d="M0 0 C0.66 0 1.32 0 2 0 C2.33 0.99 2.66 1.98 3 3 C2.34 3 1.68 3 1 3 C1 3.66 1 4.32 1 5 C1.598125 4.814375 2.19625 4.62875 2.8125 4.4375 C5 4 5 4 8 5 C8 5.99 8 6.98 8 8 C5.36 8 2.72 8 0 8 C0 5.36 0 2.72 0 0 Z " fill="#F9FDFB" transform="translate(171,101)"/>
<path d="M0 0 C2.97 0 5.94 0 9 0 C9 3.3 9 6.6 9 10 C8.67 10 8.34 10 8 10 C8 7.69 8 5.38 8 3 C7.21625 3 6.4325 3 5.625 3 C4.08333333 3 2.54166667 3 1 3 C0.01 3.495 0.01 3.495 -1 4 C-0.67 2.68 -0.34 1.36 0 0 Z " fill="#5F615A" transform="translate(171,250)"/>
<path d="M0 0 C1.32 0 2.64 0 4 0 C4 2.64 4 5.28 4 8 C2.68 8.33 1.36 8.66 0 9 C0 6.03 0 3.06 0 0 Z " fill="#241921" transform="translate(66,201)"/>
<path d="M0 0 C0.99 0 1.98 0 3 0 C3 2.97 3 5.94 3 9 C2.67 8.01 2.34 7.02 2 6 C1.34 6 0.68 6 0 6 C0 6.66 0 7.32 0 8 C-0.66 8 -1.32 8 -2 8 C-1.125 1.125 -1.125 1.125 0 0 Z " fill="#EDEDF0" transform="translate(296,221)"/>
<path d="M0 0 C0 0.66 0 1.32 0 2 C-1.65 2 -3.3 2 -5 2 C-5 2.66 -5 3.32 -5 4 C-8.3 4 -11.6 4 -15 4 C-15 3.67 -15 3.34 -15 3 C-13.88625 2.690625 -12.7725 2.38125 -11.625 2.0625 C-4.27142857 -0.09285714 -4.27142857 -0.09285714 0 0 Z " fill="#4C3536" transform="translate(75,186)"/>
<path d="M0 0 C1.98 0 3.96 0 6 0 C6 1.32 6 2.64 6 4 C4.35 4 2.7 4 1 4 C0.67 2.68 0.34 1.36 0 0 Z " fill="#8BFAE7" transform="translate(173,142)"/>
<path d="M0 0 C0.99 0 1.98 0 3 0 C3 2.31 3 4.62 3 7 C2.01 7 1.02 7 0 7 C0 4.69 0 2.38 0 0 Z " fill="#314E3F" transform="translate(181,290)"/>
<path d="M0 0 C1.32 0.66 2.64 1.32 4 2 C3.34 2 2.68 2 2 2 C2 2.99 2 3.98 2 5 C0.35 5 -1.3 5 -3 5 C-3 4.01 -3 3.02 -3 2 C-2.01 2 -1.02 2 0 2 C0 1.34 0 0.68 0 0 Z " fill="#F2EAEF" transform="translate(304,214)"/>
<path d="M0 0 C0.2475 0.61875 0.495 1.2375 0.75 1.875 C2.01039254 4.45868886 2.01039254 4.45868886 6 6 C2.7 6 -0.6 6 -4 6 C-3.67 5.01 -3.34 4.02 -3 3 C-2.01 3 -1.02 3 0 3 C0 2.01 0 1.02 0 0 Z " fill="#EE4F13" transform="translate(294,184)"/>
<path d="M0 0 C0 2.64 0 5.28 0 8 C-0.33 8 -0.66 8 -1 8 C-1 6.35 -1 4.7 -1 3 C-1.61875 3.20625 -2.2375 3.4125 -2.875 3.625 C-3.57625 3.74875 -4.2775 3.8725 -5 4 C-5.66 3.34 -6.32 2.68 -7 2 C-4.35261084 0.5393715 -3.10551666 0 0 0 Z " fill="#CC130C" transform="translate(179,91)"/>
<path d="M0 0 C1.32 0 2.64 0 4 0 C4.33 1.32 4.66 2.64 5 4 C3.35 4 1.7 4 0 4 C0 2.68 0 1.36 0 0 Z " fill="#172216" transform="translate(10,226)"/>
<path d="M0 0 C1.98 0 3.96 0 6 0 C6 0.99 6 1.98 6 3 C4.02 3 2.04 3 0 3 C0 2.01 0 1.02 0 0 Z " fill="#9EF2ED" transform="translate(172,146)"/>
<path d="M0 0 C2.64 0 5.28 0 8 0 C7.67 0.66 7.34 1.32 7 2 C4.6859378 2.73075648 2.35171131 3.40138258 0 4 C0 2.68 0 1.36 0 0 Z " fill="#295316" transform="translate(201,140)"/>
<path d="M0 0 C1.32 0 2.64 0 4 0 C4.33 0.99 4.66 1.98 5 3 C3.35 3.33 1.7 3.66 0 4 C0 2.68 0 1.36 0 0 Z " fill="#3E3C30" transform="translate(60,182)"/>
</svg>
